<?xml version="1.0" encoding="UTF-8"?>
<!-- Created with Inkscape (http://www.inkscape.org/) -->
<svg version="1.1" viewBox="0 0 25.013 40.688" xmlns="http://www.w3.org/2000/svg" xmlns:cc="http://creativecommons.org/ns#" xmlns:dc="http://purl.org/dc/elements/1.1/" xmlns:rdf="http://www.w3.org/1999/02/22-rdf-syntax-ns#" xmlns:xlink="http://www.w3.org/1999/xlink">
 <metadata>
  <rdf:RDF>
   <cc:Work rdf:about="">
    <dc:format>image/svg+xml</dc:format>
    <dc:type rdf:resource="http://purl.org/dc/dcmitype/StillImage"/>
    <dc:title/>
   </cc:Work>
  </rdf:RDF>
 </metadata>
 <image x="-.11571" y="-.4375" width="25" height="41" style="display:none" preserveAspectRatio="none" xlink:href="file:///home/hervev/Documents/projets/en_cours/postparc/petit_maquettage/srcs/marker-icon.png"/>
 <g transform="translate(-.11571 -.4375)" style="display:none">
  <path d="m12.623 0.79526c-8.6549 0-12.501 7.0602-12.278 13.017 0.22258 5.9541 12.266 26.931 12.276 26.949 0.009288-0.016177 12.056-20.995 12.278-26.949 0.22268-5.9567-3.6215-13.017-12.276-13.017zm-2e-3 39.966c-4e-6 6e-6 -2e-3 0.0058-2e-3 0.0058h0.0058s-0.0038-0.0058-0.0038-0.0058zm2e-3 -31.811a3.9944 3.9944 0 0 1 3.993 3.9949 3.9944 3.9944 0 0 1-3.993 3.993 3.9944 3.9944 0 0 1-3.9949-3.993 3.9944 3.9944 0 0 1 3.9949-3.9949z" style="display:inline;fill-rule:evenodd;fill:#5bc0de"/>
 </g>
 <g transform="translate(-.11571 -.4375)">
  <path d="m12.623 0.79526c-8.6549 0-12.501 7.0602-12.278 13.017 0.22258 5.9541 12.266 26.931 12.276 26.949 0.009288-0.016177 12.056-20.995 12.278-26.949 0.22268-5.9567-3.6215-13.017-12.276-13.017zm-2e-3 39.966c-4e-6 6e-6 -2e-3 0.0058-2e-3 0.0058h0.0058s-0.0038-0.0058-0.0038-0.0058zm2e-3 -31.811a3.9944 3.9944 0 0 1 3.993 3.9949 3.9944 3.9944 0 0 1-3.993 3.993 3.9944 3.9944 0 0 1-3.9949-3.993 3.9944 3.9944 0 0 1 3.9949-3.9949z" style="fill-rule:evenodd;fill:#d9534f"/>
 </g>
 <g transform="translate(-.11571 -.4375)" style="display:none">
  <path d="m12.623 0.79526c-8.6549 0-12.501 7.0602-12.278 13.017 0.22258 5.9541 12.266 26.931 12.276 26.949 0.009288-0.016177 12.056-20.995 12.278-26.949 0.22268-5.9567-3.6215-13.017-12.276-13.017zm-2e-3 39.966c-4e-6 6e-6 -2e-3 0.0058-2e-3 0.0058h0.0058s-0.0038-0.0058-0.0038-0.0058zm2e-3 -31.811a3.9944 3.9944 0 0 1 3.993 3.9949 3.9944 3.9944 0 0 1-3.993 3.993 3.9944 3.9944 0 0 1-3.9949-3.993 3.9944 3.9944 0 0 1 3.9949-3.9949z" style="display:none;fill-rule:evenodd;fill:#5bc0de"/>
 </g>
 <g transform="translate(-.11571 -.4375)" style="display:none">
  <path d="m12.623 0.6055c-8.737 0-12.62 7.1273-12.395 13.141 0.2247 6.0106 12.382 27.186 12.393 27.205 0.009376-0.016331 12.17-21.194 12.395-27.205 0.2248-6.0133-3.6559-13.141-12.393-13.141zm-2e-3 40.346c-4e-6 6e-6 -2e-3 0.0059-2e-3 0.0059h0.0059l-0.0038-0.0059zm2e-3 -32.113a4.0323 4.0323 0 0 1 4.0309 4.0328 4.0323 4.0323 0 0 1-4.0309 4.0309 4.0323 4.0323 0 0 1-4.0328-4.0309 4.0323 4.0323 0 0 1 4.0328-4.0328z" style="display:none;fill-rule:evenodd;fill:#5bc0de"/>
 </g>
</svg>
